<?xml version="1.0" encoding="UTF-8" standalone="no"?><!DOCTYPE svg PUBLIC "-//W3C//DTD SVG 1.1//EN" "http://www.w3.org/Graphics/SVG/1.1/DTD/svg11.dtd"><svg width="100%" height="100%" viewBox="0 0 416 358" version="1.1" xmlns="http://www.w3.org/2000/svg" xmlns:xlink="http://www.w3.org/1999/xlink" xml:space="preserve" xmlns:serif="http://www.serif.com/" style="fill-rule:evenodd;clip-rule:evenodd;stroke-linecap:round;stroke-linejoin:round;stroke-miterlimit:1.5;"><g id="affinity-designer" serif:id="affinity designer"><g><path d="M414.777,89.571c0,-49.091 -39.855,-88.946 -88.946,-88.946l-236.26,0c-49.091,0 -88.946,39.855 -88.946,88.946l0,177.891c0,49.091 39.855,88.946 88.946,88.946l236.26,0c49.091,0 88.946,-39.855 88.946,-88.946l0,-177.891Z" style="fill:none;stroke:#002510;stroke-width:1.25px;"/><g><path d="M290.825,71.55c0,-22.922 -18.609,-41.531 -41.531,-41.531l-83.23,-0c-22.921,-0 -41.531,18.609 -41.531,41.531l0,83.063c0,22.921 18.61,41.531 41.531,41.531l83.23,-0c22.922,-0 41.531,-18.61 41.531,-41.531l0,-83.063Z" style="fill:none;stroke:#002510;stroke-width:1.46px;"/><path d="M225.005,30.019l-60.575,105.283l35.115,60.842c-0,-0 -26.368,0.447 -38.584,-0.224c-4.581,-0.251 -10.282,-2.343 -15.078,-5.083c-6.268,-3.582 -11.199,-8.119 -12.184,-9.55c-0.877,-1.273 -4.825,-6.391 -6.897,-12.598c-1.809,-5.42 -2.269,-11.651 -2.269,-11.651l72.05,-126.878l28.422,-0.141" style="fill:#002510;stroke:#002510;stroke-width:1.46px;"/><path d="M290.825,132.209c0,0 0.363,-65.533 -0.999,-70.495c-2.678,-9.756 -7.775,-18.627 -16.091,-24.251c-2.631,-1.78 -11.302,-5.785 -16.54,-6.883c-4.311,-0.903 -25.164,-0.596 -25.164,-0.596l-33.408,58.411l25.471,44.221l66.731,-0.407Z" style="fill:#002510;stroke:#002510;stroke-width:1.46px;"/><path d="M195.341,95.127l21.993,37.489c0,-0 -25.025,0.721 -31.046,-0c-2.209,-0.265 -4.082,-2.424 -5.081,-4.329c-0.999,-1.905 -1.848,-4.906 -0.912,-7.101c2.355,-5.527 15.046,-26.059 15.046,-26.059Z" style="fill:#002510;stroke:#002510;stroke-width:1.46px;"/><path d="M290.869,139.006l-116.904,0.099l32.599,56.884c0,0 42.509,0.795 48.082,0c10.178,-1.452 21.692,-8.223 26.017,-13.271c3.763,-4.391 6.779,-11.509 8.393,-16.052c1.526,-4.298 1.813,-27.66 1.813,-27.66Z" style="fill:#002510;stroke:#002510;stroke-width:1.46px;"/></g><g transform="matrix(0.75,0,0,0.75,-36.55,-55.3602)"><g transform="matrix(83.3333,0,0,83.3333,147.73,424.161)"><path d="M0.475,-0.186l-0.298,0l-0.067,0.186l-0.096,-0l0.271,-0.711l0.082,0l0.272,0.711l-0.096,-0l-0.068,-0.186Zm-0.269,-0.077l0.241,0l-0.121,-0.332l-0.12,0.332Z" style="fill:#002510;fill-rule:nonzero;"/></g><g transform="matrix(83.3333,0,0,83.3333,202.092,424.161)"><path d="M0.475,-0.314l-0.299,0l0,0.314l-0.093,-0l-0,-0.711l0.44,0l-0,0.077l-0.347,0l0,0.243l0.299,0l-0,0.077Z" style="fill:#002510;fill-rule:nonzero;"/></g><g transform="matrix(83.3333,0,0,83.3333,248.154,424.161)"><path d="M0.475,-0.314l-0.299,0l0,0.314l-0.093,-0l-0,-0.711l0.44,0l-0,0.077l-0.347,0l0,0.243l0.299,0l-0,0.077Z" style="fill:#002510;fill-rule:nonzero;"/></g><g transform="matrix(83.3333,0,0,83.3333,294.215,424.161)"><rect x="0.089" y="-0.711" width="0.094" height="0.711" style="fill:#002510;fill-rule:nonzero;"/></g><g transform="matrix(83.3333,0,0,83.3333,316.879,424.161)"><path d="M0.629,-0l-0.094,-0l-0.358,-0.548l-0,0.548l-0.094,-0l-0,-0.711l0.094,0l0.359,0.55l-0,-0.55l0.093,0l-0,0.711Z" style="fill:#002510;fill-rule:nonzero;"/></g><g transform="matrix(83.3333,0,0,83.3333,376.287,424.161)"><rect x="0.089" y="-0.711" width="0.094" height="0.711" style="fill:#002510;fill-rule:nonzero;"/></g><g transform="matrix(83.3333,0,0,83.3333,397.771,424.161)"><path d="M0.574,-0.634l-0.229,0l0,0.634l-0.093,-0l-0,-0.634l-0.228,0l-0,-0.077l0.55,0l-0,0.077Z" style="fill:#002510;fill-rule:nonzero;"/></g><g transform="matrix(83.3333,0,0,83.3333,448.145,424.161)"><path d="M0.299,-0.354l0.186,-0.357l0.106,0l-0.245,0.446l0,0.265l-0.094,-0l0,-0.265l-0.245,-0.446l0.108,0l0.184,0.357Z" style="fill:#002510;fill-rule:nonzero;"/></g><g transform="matrix(83.3333,0,0,83.3333,128.484,507.494)"><path d="M0.083,-0l-0,-0.711l0.2,0c0.062,0 0.117,0.014 0.164,0.041c0.048,0.027 0.084,0.066 0.11,0.117c0.026,0.05 0.039,0.108 0.04,0.174l-0,0.045c-0,0.067 -0.013,0.126 -0.039,0.176c-0.026,0.051 -0.063,0.089 -0.111,0.116c-0.048,0.028 -0.104,0.041 -0.168,0.042l-0.196,-0Zm0.093,-0.634l0,0.557l0.099,0c0.072,0 0.128,-0.022 0.169,-0.067c0.04,-0.045 0.06,-0.109 0.06,-0.192l-0,-0.041c-0,-0.081 -0.019,-0.144 -0.057,-0.189c-0.038,-0.044 -0.092,-0.067 -0.161,-0.068l-0.11,0Z" style="fill:#002510;fill-rule:nonzero;"/></g><g transform="matrix(83.3333,0,0,83.3333,183.131,507.494)"><path d="M0.484,-0.329l-0.308,0l0,0.252l0.358,0l0,0.077l-0.451,0l-0,-0.711l0.446,0l0,0.077l-0.353,0l0,0.229l0.308,-0l0,0.076Z" style="fill:#002510;fill-rule:nonzero;"/></g><g transform="matrix(83.3333,0,0,83.3333,230.494,507.494)"><path d="M0.292,-0.317c-0.08,-0.023 -0.139,-0.051 -0.176,-0.085c-0.036,-0.034 -0.054,-0.075 -0.054,-0.125c-0,-0.056 0.022,-0.102 0.067,-0.139c0.044,-0.036 0.103,-0.055 0.174,-0.055c0.049,0 0.093,0.01 0.131,0.029c0.038,0.018 0.068,0.045 0.089,0.078c0.021,0.033 0.031,0.069 0.031,0.109l-0.094,-0c-0,-0.043 -0.014,-0.077 -0.041,-0.102c-0.027,-0.024 -0.066,-0.037 -0.116,-0.037c-0.046,0 -0.082,0.011 -0.108,0.031c-0.026,0.02 -0.039,0.049 -0.039,0.085c0,0.029 0.013,0.053 0.037,0.073c0.025,0.02 0.067,0.038 0.126,0.055c0.059,0.017 0.105,0.035 0.138,0.055c0.034,0.02 0.058,0.043 0.074,0.07c0.017,0.027 0.025,0.058 0.025,0.094c-0,0.058 -0.023,0.104 -0.068,0.139c-0.045,0.034 -0.105,0.052 -0.18,0.052c-0.049,-0 -0.094,-0.01 -0.137,-0.028c-0.042,-0.019 -0.075,-0.045 -0.098,-0.077c-0.022,-0.033 -0.034,-0.07 -0.034,-0.111l0.094,-0c0,0.043 0.016,0.077 0.048,0.102c0.032,0.025 0.074,0.037 0.127,0.037c0.05,0 0.088,-0.01 0.114,-0.03c0.026,-0.02 0.039,-0.048 0.039,-0.083c0,-0.035 -0.012,-0.061 -0.036,-0.08c-0.025,-0.02 -0.069,-0.038 -0.133,-0.057Z" style="fill:#002510;fill-rule:nonzero;"/></g><g transform="matrix(83.3333,0,0,83.3333,279.933,507.494)"><rect x="0.089" y="-0.711" width="0.094" height="0.711" style="fill:#002510;fill-rule:nonzero;"/></g><g transform="matrix(83.3333,0,0,83.3333,302.597,507.494)"><path d="M0.607,-0.093c-0.024,0.034 -0.057,0.06 -0.1,0.077c-0.044,0.017 -0.094,0.026 -0.151,0.026c-0.058,-0 -0.109,-0.014 -0.154,-0.041c-0.045,-0.027 -0.08,-0.066 -0.105,-0.116c-0.024,-0.05 -0.037,-0.108 -0.037,-0.174l-0,-0.062c-0,-0.107 0.025,-0.19 0.075,-0.249c0.049,-0.059 0.12,-0.089 0.21,-0.089c0.074,0 0.134,0.019 0.179,0.057c0.046,0.038 0.073,0.092 0.083,0.162l-0.093,-0c-0.018,-0.095 -0.074,-0.142 -0.168,-0.142c-0.063,0 -0.111,0.022 -0.143,0.067c-0.033,0.044 -0.049,0.108 -0.049,0.191l-0,0.058c-0,0.08 0.018,0.144 0.054,0.191c0.037,0.047 0.086,0.07 0.148,0.07c0.036,0 0.066,-0.004 0.093,-0.012c0.026,-0.007 0.048,-0.021 0.065,-0.039l0,-0.16l-0.164,0l-0,-0.076l0.257,-0l0,0.261Z" style="fill:#002510;fill-rule:nonzero;"/></g><g transform="matrix(83.3333,0,0,83.3333,359.36,507.494)"><path d="M0.629,-0l-0.094,-0l-0.358,-0.548l-0,0.548l-0.094,-0l-0,-0.711l0.094,0l0.359,0.55l-0,-0.55l0.093,0l-0,0.711Z" style="fill:#002510;fill-rule:nonzero;"/></g><g transform="matrix(83.3333,0,0,83.3333,418.767,507.494)"><path d="M0.484,-0.329l-0.308,0l0,0.252l0.358,0l0,0.077l-0.451,0l-0,-0.711l0.446,0l0,0.077l-0.353,0l0,0.229l0.308,-0l0,0.076Z" style="fill:#002510;fill-rule:nonzero;"/></g><g transform="matrix(83.3333,0,0,83.3333,466.13,507.494)"><path d="M0.343,-0.288l-0.167,0l0,0.288l-0.094,-0l0,-0.711l0.235,0c0.08,0 0.142,0.018 0.185,0.055c0.043,0.036 0.065,0.089 0.065,0.159c-0,0.044 -0.012,0.083 -0.036,0.116c-0.024,0.033 -0.057,0.057 -0.1,0.073l0.167,0.302l0,0.006l-0.1,-0l-0.155,-0.288Zm-0.167,-0.076l0.144,-0c0.047,-0 0.084,-0.012 0.111,-0.036c0.028,-0.024 0.042,-0.057 0.042,-0.097c-0,-0.044 -0.013,-0.078 -0.04,-0.101c-0.026,-0.024 -0.064,-0.035 -0.113,-0.036l-0.144,0l0,0.27Z" style="fill:#002510;fill-rule:nonzero;"/></g></g></g></g></svg>