<?xml version="1.0" encoding="UTF-8" standalone="no"?><!DOCTYPE svg PUBLIC "-//W3C//DTD SVG 1.1//EN" "http://www.w3.org/Graphics/SVG/1.1/DTD/svg11.dtd"><svg width="100%" height="100%" viewBox="0 0 416 358" version="1.1" xmlns="http://www.w3.org/2000/svg" xmlns:xlink="http://www.w3.org/1999/xlink" xml:space="preserve" xmlns:serif="http://www.serif.com/" style="fill-rule:evenodd;clip-rule:evenodd;stroke-linecap:round;stroke-linejoin:round;stroke-miterlimit:1.5;"><g id="c"><g><g><path d="M284.573,66.401l-77.828,44.471l79.328,44.229l-1.5,-88.7" style="fill:#2b6c46;"/><path d="M257.587,139.218c-0.421,0.764 -4.101,7.396 -6.36,10.068c-2.287,2.703 -4.478,4.81 -7.177,7.034c-2.675,2.205 -6.984,4.484 -9.862,6.027c-2.762,1.482 -4.694,2.611 -7.692,3.524c-3.465,1.056 -7.457,2.294 -11.556,2.664c-4.453,0.401 -9.78,0.537 -14.328,-0.164c-4.266,-0.657 -9.225,-1.514 -13.169,-2.982c-3.875,-1.443 -7.375,-3.467 -10.841,-5.59c-3.442,-2.108 -6.705,-4.963 -9.524,-7.795c-2.819,-2.832 -5.95,-6.395 -7.903,-9.325c-0.728,-1.092 -1.446,-2.241 -2.123,-3.419l-27.722,15.841l78.371,43.456l78.372,-43.456l-28.486,-15.883Zm-23.705,-13.217l-27.142,-15.134l-24.514,14.008c0.821,1.392 1.753,2.691 2.601,3.877c1.443,2.018 3.991,4.606 5.994,6.069c2.222,1.623 4.868,2.859 7.731,3.872c2.864,1.014 6.163,1.336 8.827,1.421c2.347,0.075 5.435,-0.353 7.695,-0.968c2.607,-0.709 5.615,-2.34 8.108,-3.759c2.305,-1.312 4.292,-3.29 5.977,-4.909c1.484,-1.426 3.236,-5.3 3.236,-5.3l1.487,0.823Z" style="fill:#002510;"/><path d="M157.053,139.261c-0.887,-1.541 -1.706,-3.13 -2.391,-4.704c-1.473,-3.384 -2.863,-8.964 -3.71,-12.5c-0.69,-2.877 -0.881,-6.189 -1.007,-9.004c-0.121,-2.678 -0.049,-5.265 0.245,-7.887c0.294,-2.621 0.771,-5.758 1.516,-8.287c1.004,-3.412 2.662,-8.262 4.512,-12.18c1.817,-3.848 4.498,-7.727 6.918,-10.731c2.204,-2.735 4.813,-5.164 7.606,-7.294c3.455,-2.635 8.992,-6.082 13.042,-8.164c3.514,-1.807 7.779,-2.944 11.631,-3.826c4.027,-0.921 8.593,-1.11 12.238,-1.178c2.977,-0.055 6.483,0.155 9.402,0.66c3.168,0.548 6.366,1.078 9.609,2.389c3.934,1.59 9.341,3.893 13.492,6.744c4.237,2.91 8.861,7.452 11.822,10.557c2.256,2.365 5.618,7.8 5.69,7.917l26.905,-15.372l-76.872,-41.801l-78.371,43.301l-0,87.2l27.723,-15.84Zm25.175,-14.384l50.163,-28.662c-0.182,-0.266 -2.586,-3.757 -3.922,-5.065c-1.53,-1.497 -3.171,-2.999 -5.198,-4.186c-2.226,-1.302 -4.726,-2.696 -7.502,-3.435c-2.809,-0.748 -5.925,-1.379 -8.7,-1.267c-2.667,0.108 -5.682,0.556 -8.182,1.494c-2.709,1.016 -3.79,0.838 -7.388,3.699c-3.502,2.786 -5.045,4.135 -6.425,6.014c-1.536,2.091 -2.935,4.306 -3.88,7.023c-1.007,2.892 -2.248,7.385 -2.304,10.683c-0.055,3.271 0.663,6.951 1.581,9.888c0.417,1.331 1.045,2.608 1.757,3.814Z" style="fill:#b6d5c3;"/></g><path d="M414.777,89.571c0,-49.091 -39.855,-88.946 -88.946,-88.946l-236.26,0c-49.091,0 -88.946,39.855 -88.946,88.946l0,177.891c0,49.091 39.855,88.946 88.946,88.946l236.26,0c49.091,0 88.946,-39.855 88.946,-88.946l0,-177.891Z" style="fill:none;stroke:#002510;stroke-width:1.25px;"/><path d="M230.508,283.142c-0.732,6.266 -3.045,11.101 -6.938,14.506c-3.892,3.404 -9.067,5.106 -15.523,5.106c-6.999,0 -12.607,-2.509 -16.825,-7.527c-4.219,-5.019 -6.328,-11.733 -6.328,-20.142l0,-5.697c0,-5.506 0.984,-10.348 2.95,-14.526c1.967,-4.177 4.754,-7.385 8.362,-9.623c3.608,-2.238 7.786,-3.357 12.533,-3.357c6.293,-0 11.339,1.756 15.136,5.269c3.798,3.513 6.009,8.376 6.633,14.588l-7.853,-0c-0.678,-4.72 -2.15,-8.138 -4.415,-10.254c-2.265,-2.116 -5.432,-3.174 -9.501,-3.174c-4.992,-0 -8.905,1.845 -11.739,5.534c-2.835,3.689 -4.252,8.938 -4.252,15.747l-0,5.737c-0,6.429 1.342,11.543 4.028,15.34c2.685,3.798 6.442,5.697 11.271,5.697c4.34,0 7.67,-0.983 9.989,-2.95c2.32,-1.967 3.859,-5.391 4.619,-10.274l7.853,-0Z" style="fill:#002510;fill-rule:nonzero;"/></g></g></svg>