<?xml version="1.0" encoding="UTF-8" standalone="no"?><!DOCTYPE svg PUBLIC "-//W3C//DTD SVG 1.1//EN" "http://www.w3.org/Graphics/SVG/1.1/DTD/svg11.dtd"><svg width="100%" height="100%" viewBox="0 0 416 358" version="1.1" xmlns="http://www.w3.org/2000/svg" xmlns:xlink="http://www.w3.org/1999/xlink" xml:space="preserve" xmlns:serif="http://www.serif.com/" style="fill-rule:evenodd;clip-rule:evenodd;stroke-linecap:round;stroke-linejoin:round;stroke-miterlimit:1.5;"><g id="html-css"><g><path d="M414.777,89.571c0,-49.091 -39.855,-88.946 -88.946,-88.946l-236.26,0c-49.091,0 -88.946,39.855 -88.946,88.946l0,177.891c0,49.091 39.855,88.946 88.946,88.946l236.26,0c49.091,0 88.946,-39.855 88.946,-88.946l0,-177.891Z" style="fill:none;stroke:#002510;stroke-width:1.25px;"/><path d="M82.929,296.762l-6.283,-0l0,-21.908l-23.893,-0l0,21.908l-6.25,-0l0,-47.396l6.25,-0l0,20.377l23.893,0l0,-20.377l6.283,-0l-0,47.396Z" style="fill:#002510;fill-rule:nonzero;"/><path d="M125.833,254.509l-15.235,-0l0,42.253l-6.217,-0l-0,-42.253l-15.202,-0l-0,-5.143l36.654,-0l-0,5.143Z" style="fill:#002510;fill-rule:nonzero;"/><path d="M140.937,249.366l15.495,38.672l15.494,-38.672l8.106,-0l-0,47.396l-6.25,-0l-0,-18.458l0.586,-19.921l-15.56,38.379l-4.785,-0l-15.528,-38.282l0.619,19.824l-0,18.458l-6.25,-0l-0,-47.396l8.073,-0Z" style="fill:#002510;fill-rule:nonzero;"/><path d="M197.35,291.651l22.461,-0l-0,5.111l-28.744,-0l0,-47.396l6.283,-0l-0,42.285Z" style="fill:#002510;fill-rule:nonzero;"/><path d="M227.2,300.831l-5.176,-0l19.792,-51.465l5.143,-0l-19.759,51.465Z" style="fill:#002510;fill-rule:nonzero;"/><path d="M289.277,281.722c-0.586,5.013 -2.436,8.882 -5.55,11.605c-3.115,2.724 -7.254,4.086 -12.419,4.086c-5.599,-0 -10.086,-2.008 -13.46,-6.023c-3.375,-4.014 -5.062,-9.385 -5.062,-16.113l-0,-4.557c-0,-4.406 0.786,-8.279 2.36,-11.621c1.573,-3.342 3.803,-5.908 6.689,-7.699c2.887,-1.79 6.229,-2.685 10.026,-2.685c5.035,-0 9.071,1.405 12.11,4.215c3.038,2.81 4.807,6.7 5.306,11.67l-6.283,0c-0.542,-3.776 -1.72,-6.51 -3.532,-8.203c-1.812,-1.693 -4.346,-2.539 -7.601,-2.539c-3.993,-0 -7.123,1.476 -9.391,4.427c-2.268,2.951 -3.402,7.151 -3.402,12.598l0,4.589c0,5.144 1.075,9.234 3.223,12.273c2.148,3.038 5.154,4.557 9.017,4.557c3.472,-0 6.136,-0.787 7.991,-2.36c1.856,-1.574 3.087,-4.313 3.695,-8.22l6.283,0Z" style="fill:#002510;fill-rule:nonzero;"/><path d="M311.77,275.635c-5.36,-1.541 -9.261,-3.434 -11.702,-5.68c-2.442,-2.246 -3.662,-5.019 -3.662,-8.317c-0,-3.733 1.492,-6.82 4.475,-9.261c2.984,-2.442 6.864,-3.662 11.638,-3.662c3.255,-0 6.158,0.629 8.708,1.888c2.549,1.258 4.524,2.994 5.924,5.208c1.4,2.214 2.1,4.633 2.1,7.259l-6.283,0c0,-2.864 -0.911,-5.116 -2.734,-6.754c-1.823,-1.639 -4.395,-2.458 -7.715,-2.458c-3.082,-0 -5.485,0.678 -7.21,2.034c-1.726,1.357 -2.588,3.239 -2.588,5.648c-0,1.932 0.819,3.565 2.457,4.899c1.639,1.335 4.427,2.556 8.366,3.662c3.939,1.107 7.021,2.328 9.245,3.662c2.224,1.335 3.874,2.892 4.948,4.672c1.074,1.779 1.611,3.873 1.611,6.282c0,3.841 -1.497,6.918 -4.492,9.229c-2.995,2.311 -6.999,3.467 -12.012,3.467c-3.255,-0 -6.293,-0.624 -9.114,-1.872c-2.821,-1.248 -4.997,-2.957 -6.527,-5.127c-1.53,-2.17 -2.295,-4.633 -2.295,-7.389l6.283,-0c-0,2.864 1.058,5.126 3.174,6.787c2.115,1.66 4.942,2.49 8.479,2.49c3.299,-0 5.827,-0.673 7.585,-2.018c1.758,-1.346 2.637,-3.18 2.637,-5.502c-0,-2.322 -0.814,-4.117 -2.442,-5.387c-1.627,-1.27 -4.579,-2.523 -8.854,-3.76Z" style="fill:#002510;fill-rule:nonzero;"/><path d="M351.321,275.635c-5.36,-1.541 -9.261,-3.434 -11.703,-5.68c-2.441,-2.246 -3.662,-5.019 -3.662,-8.317c0,-3.733 1.492,-6.82 4.476,-9.261c2.984,-2.442 6.863,-3.662 11.638,-3.662c3.255,-0 6.157,0.629 8.707,1.888c2.55,1.258 4.525,2.994 5.925,5.208c1.4,2.214 2.099,4.633 2.099,7.259l-6.282,0c-0,-2.864 -0.912,-5.116 -2.735,-6.754c-1.822,-1.639 -4.394,-2.458 -7.714,-2.458c-3.082,-0 -5.485,0.678 -7.211,2.034c-1.725,1.357 -2.588,3.239 -2.588,5.648c0,1.932 0.82,3.565 2.458,4.899c1.639,1.335 4.427,2.556 8.366,3.662c3.939,1.107 7.02,2.328 9.245,3.662c2.224,1.335 3.873,2.892 4.948,4.672c1.074,1.779 1.611,3.873 1.611,6.282c0,3.841 -1.497,6.918 -4.492,9.229c-2.995,2.311 -6.999,3.467 -12.012,3.467c-3.255,-0 -6.293,-0.624 -9.114,-1.872c-2.822,-1.248 -4.997,-2.957 -6.527,-5.127c-1.53,-2.17 -2.295,-4.633 -2.295,-7.389l6.282,-0c0,2.864 1.058,5.126 3.174,6.787c2.116,1.66 4.943,2.49 8.48,2.49c3.299,-0 5.827,-0.673 7.585,-2.018c1.758,-1.346 2.636,-3.18 2.636,-5.502c0,-2.322 -0.813,-4.117 -2.441,-5.387c-1.628,-1.27 -4.579,-2.523 -8.854,-3.76Z" style="fill:#002510;fill-rule:nonzero;"/><path d="M157.777,73.227l25.472,10.295l0,7.975l-33.284,-15.422l-0,-5.94l33.284,-15.381l0,7.975l-25.472,10.498Z" style="fill:#002510;fill-rule:nonzero;"/><path d="M196.595,104.518l-6.469,-0l24.739,-64.331l6.429,-0l-24.699,64.331Z" style="fill:#002510;fill-rule:nonzero;"/><path d="M256.084,72.983l-26.896,-10.539l0,-7.731l34.75,15.381l-0,5.941l-34.75,15.421l0,-7.812l26.896,-10.661Z" style="fill:#002510;fill-rule:nonzero;"/><path d="M204.53,193.409c-4.801,-1.356 -8.416,-3.587 -10.844,-6.693c-2.428,-3.106 -3.642,-7.209 -3.642,-12.309l0,-8.097c0,-6.592 -2.875,-9.888 -8.626,-9.888l0,-5.9c5.751,-0 8.626,-3.283 8.626,-9.847l0,-8.464c0.055,-4.964 1.269,-8.972 3.642,-12.024c2.374,-3.051 5.988,-5.269 10.844,-6.653l1.546,4.68c-5.669,1.817 -8.504,6.551 -8.504,14.201l0,8.219c0,6.158 -2.265,10.444 -6.795,12.858c4.53,2.442 6.795,6.768 6.795,12.98l0,8.382c0.081,7.46 2.916,12.085 8.504,13.876l-1.546,4.679Z" style="fill:#002510;fill-rule:nonzero;"/><path d="M207.785,188.73c5.507,-1.763 8.355,-6.253 8.545,-13.469l0,-8.951c0,-6.267 2.455,-10.539 7.365,-12.818c-4.91,-2.224 -7.365,-6.497 -7.365,-12.817l0,-8.26c0,-7.65 -2.835,-12.384 -8.504,-14.201l1.546,-4.68c4.802,1.357 8.409,3.561 10.824,6.613c2.414,3.051 3.635,7.086 3.662,12.105l-0,8.545c-0,6.483 2.875,9.725 8.626,9.725l0,5.9c-5.751,-0 -8.626,3.296 -8.626,9.888l-0,8.219c-0,5.1 -1.228,9.182 -3.683,12.248c-2.455,3.065 -6.056,5.276 -10.803,6.632l-1.587,-4.679Z" style="fill:#002510;fill-rule:nonzero;"/></g></g></svg>