<?xml version="1.0" encoding="UTF-8" standalone="no"?><!DOCTYPE svg PUBLIC "-//W3C//DTD SVG 1.1//EN" "http://www.w3.org/Graphics/SVG/1.1/DTD/svg11.dtd"><svg width="100%" height="100%" viewBox="0 0 416 358" version="1.1" xmlns="http://www.w3.org/2000/svg" xmlns:xlink="http://www.w3.org/1999/xlink" xml:space="preserve" xmlns:serif="http://www.serif.com/" style="fill-rule:evenodd;clip-rule:evenodd;stroke-linecap:round;stroke-linejoin:round;stroke-miterlimit:1.5;"><g id="java"><g><g><path d="M248.098,118.565c-0,-0 6.504,-3.58 12.471,-1.395c2.4,0.88 9.407,3.993 8.41,12.695c-1.351,11.791 -23.754,18.603 -23.754,18.603c-0,0 16.917,-11.353 16.951,-21.962c0.027,-8.339 -14.078,-7.941 -14.078,-7.941Z" style="fill:#002510;stroke:#002510;stroke-width:1.46px;"/><path d="M213.989,123.25c-0,-0 10.185,-7.707 12.054,-11.198c1.539,-2.875 0.262,-6.679 -0.844,-9.747c-1.157,-3.21 -4.831,-6.644 -6.097,-9.514c-1.055,-2.395 -2.41,-5.256 -1.494,-7.708c1.184,-3.166 5.105,-8.098 8.596,-11.29c4.354,-3.98 17.528,-12.594 17.528,-12.594c0,-0 -9.309,2.78 -13.69,4.837c-4.504,2.113 -9.686,4.262 -13.33,7.845c-3.644,3.584 -7.499,9.583 -8.536,13.654c-0.906,3.559 0.937,7.368 2.318,10.771c1.672,4.124 7.135,9.815 7.718,13.972c0.544,3.881 -4.223,10.972 -4.223,10.972Z" style="fill:#002510;stroke:#002510;stroke-width:1.46px;"/><path d="M207.202,116.634c0,0 -5.39,-4.512 -7.821,-7.041c-2.544,-2.647 -5.284,-5.759 -7.446,-8.841c-2.128,-3.034 -4.429,-7.15 -5.522,-9.651c-0.729,-1.667 -1.413,-3.578 -1.039,-5.359c0.41,-1.947 2.099,-4.364 3.498,-6.325c1.587,-2.224 3.81,-4.873 6.022,-7.02c2.377,-2.305 5.45,-4.595 8.239,-6.814c2.869,-2.284 6.607,-4.775 8.979,-6.889c1.947,-1.735 3.576,-3.802 5.256,-5.797c1.839,-2.183 4.552,-4.861 5.777,-7.305c1.124,-2.241 1.429,-4.853 1.575,-7.356c0.171,-2.938 -0.546,-10.272 -0.546,-10.272c-0,0 3.035,4.493 3.729,6.884c0.694,2.39 0.699,4.983 0.435,7.46c-0.273,2.563 -0.962,5.427 -2.074,7.919c-1.12,2.51 -2.85,4.94 -4.643,7.141c-2.173,2.666 -5.719,6.219 -8.393,8.855c-2.456,2.422 -5.281,4.566 -7.652,6.964c-2.324,2.35 -4.736,4.676 -6.574,7.422c-1.852,2.768 -3.924,6.519 -4.54,9.185c-0.514,2.229 0.294,4.81 0.847,6.81c0.51,1.847 1.49,3.545 2.468,5.193c1.982,3.338 9.425,14.837 9.425,14.837Z" style="fill:#002510;stroke:#002510;stroke-width:1.46px;"/><path d="M241.419,123.923l-5.768,5.186c-0,-0 -9.078,0.873 -13.3,1.315c-4.013,0.421 -8.008,1.024 -12.03,1.338c-4.6,0.359 -10.034,0.812 -15.23,0.783c-5.253,-0.029 -11.205,-0.55 -16.288,-0.958c-4.857,-0.389 -11.392,-0.665 -14.544,-1.453c-1.766,-0.441 -4.494,-2.165 -4.371,-3.272c0.122,-1.107 3.241,-2.542 5.105,-3.371c2.329,-1.035 5.857,-2.093 8.869,-2.843c3.516,-0.876 12.224,-2.411 12.224,-2.411c0,-0 -7.059,2.276 -9.457,3.309c-1.748,0.753 -4.616,1.966 -4.927,2.887c-0.312,0.922 1.775,2.232 3.058,2.641c2.048,0.653 6.312,1.077 9.226,1.275c2.746,0.186 5.504,-0.042 8.256,-0.088c3.085,-0.052 7.515,0.316 10.933,0.252c3.903,-0.074 8.299,-0.38 12.484,-0.693c4.008,-0.3 7.969,-1.062 11.944,-1.663c4.293,-0.649 13.816,-2.234 13.816,-2.234Z" style="fill:#002510;stroke:#002510;stroke-width:1.46px;"/><path d="M234.82,145.502c0,-0 -6.029,2.192 -9.161,2.83c-3.314,0.675 -7.136,0.926 -10.721,1.219c-3.919,0.32 -8.521,0.703 -12.791,0.701c-4.317,-0.001 -8.767,-0.178 -13.11,-0.713c-4.426,-0.545 -10.754,-1.454 -13.44,-2.558c-1.501,-0.616 -3.339,-2.579 -2.68,-4.062c0.733,-1.648 7.077,-5.827 7.077,-5.827c0,0 -0.448,3.424 0.554,4.6c1.025,1.204 3.554,2.356 5.597,2.622c2.916,0.379 6.923,0.653 10.515,0.656c3.218,0.003 7.819,-0.466 11.033,-0.638c3.311,-0.178 6.826,-0.856 10.217,-1.43c3.71,-0.628 12.04,-2.338 12.04,-2.338l4.87,4.938Z" style="fill:#002510;stroke:#002510;stroke-width:1.46px;"/><path d="M232.935,163.112c-0,0 -8.589,3.262 -12.86,4.158c-4.183,0.877 -8.695,1.142 -12.765,1.218c-3.891,0.073 -7.95,-0.339 -11.652,-0.763c-3.546,-0.406 -7.606,-0.65 -10.559,-1.778c-2.718,-1.039 -6.967,-3.694 -7.551,-5.47c-1.108,-3.369 6.641,-5.711 6.641,-5.711c0,-0 0.434,2.836 1.471,3.628c1.233,0.942 3.339,2.302 5.413,2.537c2.456,0.279 5.25,0.372 8.191,0.385c2.953,0.014 7.082,-0.749 10.037,-0.815c2.955,-0.067 6.391,-0.393 8.829,-0.834c1.992,-0.361 5.798,-1.815 5.798,-1.815l9.007,5.26Z" style="fill:#002510;stroke:#002510;stroke-width:1.46px;"/><path d="M261.097,170.538c-0,-0 -5.91,6.271 -9.743,7.984c-4.251,1.901 -10.46,2.536 -15.763,3.418c-5.549,0.922 -11.657,1.749 -17.532,2.117c-6.152,0.385 -12.92,0.225 -19.381,0.194c-6.598,-0.031 -13.583,-0.032 -20.206,-0.38c-6.526,-0.344 -14.23,-0.552 -19.529,-1.713c-4.344,-0.952 -10.545,-3.673 -12.264,-5.254c-1.144,-1.053 0.763,-3.235 1.953,-4.235c1.404,-1.181 4.176,-2.325 6.474,-2.852c3.734,-0.856 15.928,-2.284 15.928,-2.284c-0,0 -12.689,4.724 -13.862,6.311c-1.174,1.586 4.412,2.495 6.822,3.208c2.966,0.878 7.269,1.727 10.977,2.059c4.227,0.38 9.681,0.139 14.386,0.217c4.617,0.077 9.232,0.271 13.849,0.255c5.57,-0.019 13.809,-0.074 19.569,-0.369c5.012,-0.257 10.451,-0.865 14.99,-1.399c4.096,-0.482 8.647,-0.33 12.241,-1.805c3.595,-1.475 11.091,-5.472 11.091,-5.472Z" style="fill:#002510;stroke:#002510;stroke-width:1.46px;"/><path d="M268.963,177.603c-0,-0 -3.522,4.212 -5.798,5.671c-2.702,1.732 -6.739,3.711 -10.414,4.72c-4.768,1.31 -12.19,2.435 -18.196,3.138c-5.918,0.692 -11.891,0.774 -17.842,1.079c-6.076,0.312 -13.396,0.948 -18.616,0.79c-4.273,-0.13 -8.513,-0.91 -12.706,-1.74c-4.773,-0.945 -15.931,-3.929 -15.931,-3.929c0,0 14.974,1.758 20.098,2.209c3.54,0.312 7.095,0.473 10.648,0.498c3.625,0.025 7.404,-0.188 11.103,-0.346c4.075,-0.173 9.238,-0.432 13.345,-0.692c3.769,-0.24 7.544,-0.453 11.297,-0.874c3.778,-0.423 7.738,-0.856 11.373,-1.669c3.552,-0.796 7.067,-1.836 10.436,-3.214c3.606,-1.476 11.203,-5.641 11.203,-5.641Z" style="fill:#002510;stroke:#002510;stroke-width:1.46px;"/></g><path d="M414.777,89.571c0,-49.091 -39.855,-88.946 -88.946,-88.946l-236.26,0c-49.091,0 -88.946,39.855 -88.946,88.946l0,177.891c0,49.091 39.855,88.946 88.946,88.946l236.26,0c49.091,0 88.946,-39.855 88.946,-88.946l0,-177.891Z" style="fill:none;stroke:#002510;stroke-width:1.25px;"/><path d="M138.986,242.041l7.853,0l0,41.952c0,5.669 -1.702,10.105 -5.107,13.306c-3.404,3.2 -7.941,4.801 -13.61,4.801c-5.887,-0 -10.471,-1.506 -13.754,-4.517c-3.282,-3.011 -4.923,-7.229 -4.923,-12.654l7.812,-0c0,3.391 0.929,6.035 2.788,7.934c1.858,1.899 4.55,2.849 8.077,2.849c3.228,-0 5.839,-1.018 7.832,-3.052c1.994,-2.035 3.005,-4.883 3.032,-8.545l-0,-42.074Z" style="fill:#002510;fill-rule:nonzero;"/><path d="M191.964,285.824l-24.821,-0l-5.574,15.462l-8.057,0l22.624,-59.245l6.836,0l22.664,59.245l-8.016,0l-5.656,-15.462Zm-22.461,-6.429l20.142,-0l-10.091,-27.71l-10.051,27.71Z" style="fill:#002510;fill-rule:nonzero;"/><path d="M229.684,290.91l16.927,-48.869l8.545,0l-21.973,59.245l-6.917,0l-21.932,-59.245l8.504,0l16.846,48.869Z" style="fill:#002510;fill-rule:nonzero;"/><path d="M292.754,285.824l-24.821,-0l-5.575,15.462l-8.056,0l22.623,-59.245l6.836,0l22.665,59.245l-8.016,0l-5.656,-15.462Zm-22.461,-6.429l20.141,-0l-10.091,-27.71l-10.05,27.71Z" style="fill:#002510;fill-rule:nonzero;"/></g></g></svg>