<?xml version="1.0" encoding="UTF-8" standalone="no"?><!DOCTYPE svg PUBLIC "-//W3C//DTD SVG 1.1//EN" "http://www.w3.org/Graphics/SVG/1.1/DTD/svg11.dtd"><svg width="100%" height="100%" viewBox="0 0 416 358" version="1.1" xmlns="http://www.w3.org/2000/svg" xmlns:xlink="http://www.w3.org/1999/xlink" xml:space="preserve" xmlns:serif="http://www.serif.com/" style="fill-rule:evenodd;clip-rule:evenodd;stroke-linecap:round;stroke-linejoin:round;stroke-miterlimit:1.5;"><g id="matlab"><g id="Layer2"><g><path d="M187.857,214.015c-0,0 -15.844,-45.876 -28.309,-50.367c-4.603,-1.659 -14.513,2.205 -14.513,2.205l-42.687,-31.713l56.996,-22.54c0,-0 11.581,-14.475 17.325,-18.809c4.945,-3.732 12.261,-3.374 17.138,-7.196c6.121,-4.797 14.67,-13.209 19.592,-21.588c6.286,-10.701 13.152,-27.096 19.467,-27.237c6.858,-0.154 16.487,15.245 16.487,15.245l49.602,132.801c-0,0 -26.709,-30.771 -41.887,-25.823c-11.977,3.905 -36.055,31.535 -40.665,37.82c-12.04,16.417 -28.546,17.202 -28.546,17.202Z" style="fill:none;stroke:#002510;stroke-width:1.46px;"/><path d="M213.399,64.007c-0,-0 -20.984,57.166 -26.905,65.124c-8.372,11.253 -32.226,31.061 -41.459,36.722" style="fill:none;stroke:#002510;stroke-width:1.46px;"/><path d="M186.494,129.131c-8.973,-3.449 -27.15,-17.531 -27.15,-17.531" style="fill:none;stroke:#002510;stroke-width:1.46px;"/><path d="M193.752,198.983l-12.611,-26.994c0,0 18.99,-6.439 22.469,-14.681c8.794,-20.831 30.296,-110.305 30.296,-110.305l24.455,99.661c-0,-0 -11.681,3.056 -16.385,6.596c-6.662,5.014 -16.644,14.864 -23.59,23.491c-10.301,12.794 -24.634,22.232 -24.634,22.232Z" style="fill:#002510;stroke:#002510;stroke-width:1.46px;"/><path d="M61.481,241.882l19.369,48.34l19.368,-48.34l10.132,-0l0,59.245l-7.812,-0l-0,-23.072l0.732,-24.902l-19.45,47.974l-5.981,-0l-19.41,-47.852l0.774,24.78l-0,23.072l-7.813,-0l0,-59.245l10.091,-0Z" style="fill:#002510;fill-rule:nonzero;"/><path d="M157.591,285.665l-24.821,-0l-5.574,15.462l-8.057,-0l22.624,-59.245l6.836,-0l22.664,59.245l-8.016,-0l-5.656,-15.462Zm-22.461,-6.43l20.142,0l-10.091,-27.709l-10.051,27.709Z" style="fill:#002510;fill-rule:nonzero;"/><path d="M214.924,248.311l-19.043,-0l-0,52.816l-7.772,-0l-0,-52.816l-19.002,-0l-0,-6.429l45.817,-0l-0,6.429Z" style="fill:#002510;fill-rule:nonzero;"/><path d="M231.566,294.738l28.076,0l0,6.389l-35.929,-0l-0,-59.245l7.853,-0l-0,52.856Z" style="fill:#002510;fill-rule:nonzero;"/><path d="M302.041,285.665l-24.821,-0l-5.574,15.462l-8.057,-0l22.624,-59.245l6.836,-0l22.664,59.245l-8.016,-0l-5.656,-15.462Zm-22.461,-6.43l20.142,0l-10.091,-27.709l-10.051,27.709Z" style="fill:#002510;fill-rule:nonzero;"/><path d="M323.688,301.127l0,-59.245l19.369,-0c6.429,-0 11.264,1.329 14.506,3.988c3.241,2.658 4.862,6.591 4.862,11.8c0,2.767 -0.786,5.215 -2.36,7.344c-1.573,2.13 -3.716,3.778 -6.429,4.944c3.201,0.895 5.731,2.598 7.589,5.107c1.858,2.509 2.787,5.5 2.787,8.972c0,5.317 -1.722,9.494 -5.167,12.532c-3.446,3.039 -8.315,4.558 -14.608,4.558l-20.549,-0Zm7.813,-27.71l-0,21.321l12.899,0c3.635,0 6.503,-0.942 8.605,-2.828c2.103,-1.885 3.154,-4.482 3.154,-7.792c-0,-7.134 -3.879,-10.701 -11.637,-10.701l-13.021,-0Zm-0,-6.266l11.8,-0c3.418,-0 6.151,-0.855 8.199,-2.564c2.048,-1.709 3.072,-4.028 3.072,-6.958c0,-3.255 -0.949,-5.622 -2.848,-7.1c-1.899,-1.479 -4.788,-2.218 -8.667,-2.218l-11.556,-0l-0,18.84Z" style="fill:#002510;fill-rule:nonzero;"/><path d="M414.777,89.571c0,-49.091 -39.855,-88.946 -88.946,-88.946l-236.26,0c-49.091,0 -88.946,39.855 -88.946,88.946l0,177.891c0,49.091 39.855,88.946 88.946,88.946l236.26,0c49.091,0 88.946,-39.855 88.946,-88.946l0,-177.891Z" style="fill:none;stroke:#002510;stroke-width:1.25px;"/></g></g></g></svg>