<?xml version="1.0" encoding="UTF-8" standalone="no"?><!DOCTYPE svg PUBLIC "-//W3C//DTD SVG 1.1//EN" "http://www.w3.org/Graphics/SVG/1.1/DTD/svg11.dtd"><svg width="100%" height="100%" viewBox="0 0 416 358" version="1.1" xmlns="http://www.w3.org/2000/svg" xmlns:xlink="http://www.w3.org/1999/xlink" xml:space="preserve" xmlns:serif="http://www.serif.com/" style="fill-rule:evenodd;clip-rule:evenodd;stroke-linecap:round;stroke-linejoin:round;stroke-miterlimit:1.5;"><g id="python"><g><g><path d="M165.415,61.927c0,0 -1.243,-16.43 -0.296,-21.325c0.729,-3.765 3.006,-7.566 6.196,-9.694c4.215,-2.811 13.088,-5.8 19.095,-7.175c5.517,-1.263 11.306,-1.57 16.944,-1.074c7.513,0.661 21.347,2.532 28.135,5.04c5.029,1.858 11.451,4.768 12.591,10.007c2.223,10.22 1.698,40.44 0.75,51.312c-0.443,5.092 -3.18,10.81 -6.434,13.918c-3.254,3.109 -8.461,4.397 -13.088,4.734c-10.876,0.794 -41.591,-1.453 -52.17,0.03c-4.371,0.613 -8.798,3.004 -11.723,6.156c-2.925,3.152 -5.176,8.128 -5.828,12.757c-0.95,6.747 0.125,27.725 0.125,27.725c-0,0 -16.852,-0.167 -22.084,-1.835c-4.478,-1.428 -8.115,-5.361 -10.502,-9.41c-3.036,-5.151 -6.403,-14.363 -7.712,-21.492c-1.282,-6.977 -1.084,-14.805 -0.145,-21.28c0.886,-6.102 2.901,-12.695 5.784,-17.571c2.782,-4.707 6.479,-9.547 11.511,-11.685c5.577,-2.37 21.952,-2.534 21.952,-2.534l48.838,-0l-0.49,-6.604l-41.449,0Zm17.214,-24.205c3.972,0 7.197,3.226 7.197,7.198c0,3.973 -3.225,7.198 -7.197,7.198c-3.973,0 -7.198,-3.225 -7.198,-7.198c-0,-3.972 3.225,-7.198 7.198,-7.198Z" style="fill:#002510;stroke:#002510;stroke-width:1.46px;"/><path d="M249.987,159.063c0,-0 1.244,16.431 0.296,21.325c-0.729,3.765 -3.005,7.566 -6.196,9.694c-4.215,2.812 -13.088,5.801 -19.095,7.175c-5.516,1.263 -11.306,1.57 -16.944,1.075c-7.513,-0.661 -21.347,-2.532 -28.135,-5.04c-5.029,-1.858 -11.451,-4.769 -12.59,-10.008c-2.224,-10.219 -1.698,-40.44 -0.751,-51.312c0.444,-5.092 3.181,-10.809 6.434,-13.918c3.254,-3.109 8.461,-4.396 13.088,-4.734c10.877,-0.794 41.591,1.453 52.17,-0.03c4.371,-0.612 8.798,-3.004 11.723,-6.156c2.925,-3.152 5.176,-8.128 5.828,-12.757c0.951,-6.747 -0.124,-27.725 -0.124,-27.725c-0,0 16.851,0.167 22.083,1.835c4.478,1.428 8.115,5.361 10.502,9.411c3.036,5.15 6.403,14.363 7.713,21.491c1.281,6.977 1.084,14.805 0.144,21.281c-0.886,6.102 -2.901,12.694 -5.783,17.57c-2.783,4.707 -6.48,9.547 -11.512,11.686c-5.577,2.37 -21.951,2.533 -21.951,2.533l-48.839,0l0.49,6.604l41.449,-0Zm-18.662,10.6c3.973,-0 7.198,3.225 7.198,7.198c0,3.972 -3.225,7.197 -7.198,7.197c-3.972,0 -7.198,-3.225 -7.198,-7.197c0,-3.973 3.226,-7.198 7.198,-7.198Z" style="fill:#002510;stroke:#002510;stroke-width:1.46px;"/></g><path d="M414.777,89.571c0,-49.091 -39.855,-88.946 -88.946,-88.946l-236.26,0c-49.091,0 -88.946,39.855 -88.946,88.946l0,177.891c0,49.091 39.855,88.946 88.946,88.946l236.26,0c49.091,0 88.946,-39.855 88.946,-88.946l0,-177.891Z" style="fill:none;stroke:#002510;stroke-width:1.25px;"/><path d="M57.88,278.222l0,23.194l-7.812,-0l-0,-59.245l21.85,0c6.484,0 11.563,1.655 15.239,4.964c3.675,3.31 5.513,7.691 5.513,13.143c0,5.751 -1.797,10.179 -5.391,13.285c-3.595,3.106 -8.742,4.659 -15.442,4.659l-13.957,0Zm0,-6.388l14.038,0c4.178,0 7.379,-0.983 9.603,-2.95c2.225,-1.967 3.337,-4.808 3.337,-8.524c-0,-3.527 -1.112,-6.348 -3.337,-8.464c-2.224,-2.116 -5.276,-3.215 -9.155,-3.296l-14.486,0l0,23.234Z" style="fill:#002510;fill-rule:nonzero;"/><path d="M120.706,271.916l15.462,-29.745l8.87,0l-20.426,37.15l-0,22.095l-7.813,-0l0,-22.095l-20.426,-37.15l8.952,0l15.381,29.745Z" style="fill:#002510;fill-rule:nonzero;"/><path d="M194.314,248.6l-19.043,0l0,52.816l-7.772,-0l0,-52.816l-19.002,0l0,-6.429l45.817,0l0,6.429Z" style="fill:#002510;fill-rule:nonzero;"/><path d="M248.635,301.416l-7.853,-0l0,-27.385l-29.866,0l-0,27.385l-7.813,-0l0,-59.245l7.813,0l-0,25.472l29.866,0l0,-25.472l7.853,0l0,59.245Z" style="fill:#002510;fill-rule:nonzero;"/><path d="M308.084,273.706c-0,5.805 -0.977,10.871 -2.93,15.198c-1.953,4.326 -4.72,7.629 -8.301,9.908c-3.581,2.278 -7.758,3.418 -12.532,3.418c-4.666,-0 -8.803,-1.146 -12.411,-3.439c-3.608,-2.292 -6.409,-5.561 -8.402,-9.806c-1.994,-4.245 -3.018,-9.162 -3.072,-14.75l-0,-4.273c-0,-5.696 0.99,-10.728 2.97,-15.096c1.98,-4.367 4.781,-7.71 8.402,-10.03c3.622,-2.319 7.765,-3.479 12.431,-3.479c4.747,0 8.932,1.146 12.553,3.439c3.622,2.292 6.409,5.615 8.362,9.969c1.953,4.353 2.93,9.419 2.93,15.197l-0,3.744Zm-7.772,-3.825c-0,-7.026 -1.411,-12.417 -4.232,-16.174c-2.821,-3.757 -6.768,-5.636 -11.841,-5.636c-4.937,0 -8.823,1.879 -11.658,5.636c-2.834,3.757 -4.292,8.972 -4.374,15.645l0,4.354c0,6.809 1.431,12.159 4.293,16.052c2.862,3.893 6.802,5.839 11.821,5.839c5.045,0 8.951,-1.838 11.718,-5.513c2.767,-3.676 4.191,-8.945 4.273,-15.808l-0,-4.395Z" style="fill:#002510;fill-rule:nonzero;"/><path d="M365.335,301.416l-7.854,-0l-29.825,-45.654l-0,45.654l-7.854,-0l0,-59.245l7.854,0l29.907,45.858l-0,-45.858l7.772,0l-0,59.245Z" style="fill:#002510;fill-rule:nonzero;"/></g></g></svg>