<?xml version="1.0" encoding="UTF-8" standalone="no"?><!DOCTYPE svg PUBLIC "-//W3C//DTD SVG 1.1//EN" "http://www.w3.org/Graphics/SVG/1.1/DTD/svg11.dtd"><svg width="100%" height="100%" viewBox="0 0 416 358" version="1.1" xmlns="http://www.w3.org/2000/svg" xmlns:xlink="http://www.w3.org/1999/xlink" xml:space="preserve" xmlns:serif="http://www.serif.com/" style="fill-rule:evenodd;clip-rule:evenodd;stroke-linecap:round;stroke-miterlimit:1.5;"><g id="shell"><g><path d="M289.476,70.151c-0,-22.197 -18.021,-40.218 -40.218,-40.218l-83.114,0c-22.197,0 -40.218,18.021 -40.218,40.218l0,80.435c0,22.197 18.021,40.218 40.218,40.218l83.114,-0c22.197,-0 40.218,-18.021 40.218,-40.218l-0,-80.435Zm-71.275,72.395l47.873,0.163l-0,14.042l-47.873,-0l0,-14.205Zm-68.964,-81.415l47.79,18.057l-0,13.41l-47.79,16.334l-0,-12.829l31.095,-10.94l-31.095,-10.581l-0,-13.451Z" style="fill:#002510;stroke:#002510;stroke-width:1.25px;"/><path d="M414.777,89.571c0,-49.091 -39.855,-88.946 -88.946,-88.946l-236.26,0c-49.091,0 -88.946,39.855 -88.946,88.946l0,177.891c0,49.091 39.855,88.946 88.946,88.946l236.26,0c49.091,0 88.946,-39.855 88.946,-88.946l0,-177.891Z" style="fill:none;stroke:#002510;stroke-width:1.25px;stroke-linejoin:round;"/><g transform="matrix(0.75,0,0,0.75,188.791,26.6979)"><g transform="matrix(83.3333,0,0,83.3333,-96.2869,314.75)"><path d="M0.292,-0.317c-0.08,-0.023 -0.139,-0.051 -0.176,-0.085c-0.036,-0.034 -0.054,-0.075 -0.054,-0.125c-0,-0.056 0.022,-0.102 0.067,-0.139c0.044,-0.036 0.103,-0.055 0.174,-0.055c0.049,0 0.093,0.01 0.131,0.029c0.038,0.018 0.068,0.045 0.089,0.078c0.021,0.033 0.031,0.069 0.031,0.109l-0.094,-0c-0,-0.043 -0.014,-0.077 -0.041,-0.102c-0.027,-0.024 -0.066,-0.037 -0.116,-0.037c-0.046,0 -0.082,0.011 -0.108,0.031c-0.026,0.02 -0.039,0.049 -0.039,0.085c0,0.029 0.013,0.053 0.037,0.073c0.025,0.02 0.067,0.038 0.126,0.055c0.059,0.017 0.105,0.035 0.138,0.055c0.034,0.02 0.058,0.043 0.074,0.07c0.017,0.027 0.025,0.058 0.025,0.094c-0,0.058 -0.023,0.104 -0.068,0.139c-0.045,0.034 -0.105,0.052 -0.18,0.052c-0.049,-0 -0.094,-0.01 -0.137,-0.028c-0.042,-0.019 -0.075,-0.045 -0.098,-0.077c-0.022,-0.033 -0.034,-0.07 -0.034,-0.111l0.094,-0c0,0.043 0.016,0.077 0.048,0.102c0.032,0.025 0.074,0.037 0.127,0.037c0.05,0 0.088,-0.01 0.114,-0.03c0.026,-0.02 0.039,-0.048 0.039,-0.083c0,-0.035 -0.012,-0.061 -0.036,-0.08c-0.025,-0.02 -0.069,-0.038 -0.133,-0.057Z" style="fill:#002510;fill-rule:nonzero;"/></g><g transform="matrix(83.3333,0,0,83.3333,-46.8484,314.75)"><path d="M0.629,-0l-0.094,-0l-0,-0.329l-0.359,0l0,0.329l-0.093,-0l-0,-0.711l0.093,0l0,0.306l0.359,-0l-0,-0.306l0.094,0l-0,0.711Z" style="fill:#002510;fill-rule:nonzero;"/></g><g transform="matrix(83.3333,0,0,83.3333,12.5591,314.75)"><path d="M0.484,-0.329l-0.308,0l0,0.252l0.358,0l0,0.077l-0.451,0l-0,-0.711l0.446,0l0,0.077l-0.353,0l0,0.229l0.308,-0l0,0.076Z" style="fill:#002510;fill-rule:nonzero;"/></g><g transform="matrix(83.3333,0,0,83.3333,59.9224,314.75)"><path d="M0.177,-0.077l0.337,0l-0,0.077l-0.431,-0l-0,-0.711l0.094,0l-0,0.634Z" style="fill:#002510;fill-rule:nonzero;"/></g><g transform="matrix(83.3333,0,0,83.3333,104.763,314.75)"><path d="M0.177,-0.077l0.337,0l-0,0.077l-0.431,-0l-0,-0.711l0.094,0l-0,0.634Z" style="fill:#002510;fill-rule:nonzero;"/></g><g transform="matrix(83.3333,0,0,83.3333,-182.733,398.083)"><path d="M0.292,-0.317c-0.08,-0.023 -0.139,-0.051 -0.176,-0.085c-0.036,-0.034 -0.054,-0.075 -0.054,-0.125c-0,-0.056 0.022,-0.102 0.067,-0.139c0.044,-0.036 0.103,-0.055 0.174,-0.055c0.049,0 0.093,0.01 0.131,0.029c0.038,0.018 0.068,0.045 0.089,0.078c0.021,0.033 0.031,0.069 0.031,0.109l-0.094,-0c-0,-0.043 -0.014,-0.077 -0.041,-0.102c-0.027,-0.024 -0.066,-0.037 -0.116,-0.037c-0.046,0 -0.082,0.011 -0.108,0.031c-0.026,0.02 -0.039,0.049 -0.039,0.085c0,0.029 0.013,0.053 0.037,0.073c0.025,0.02 0.067,0.038 0.126,0.055c0.059,0.017 0.105,0.035 0.138,0.055c0.034,0.02 0.058,0.043 0.074,0.07c0.017,0.027 0.025,0.058 0.025,0.094c-0,0.058 -0.023,0.104 -0.068,0.139c-0.045,0.034 -0.105,0.052 -0.18,0.052c-0.049,-0 -0.094,-0.01 -0.137,-0.028c-0.042,-0.019 -0.075,-0.045 -0.098,-0.077c-0.022,-0.033 -0.034,-0.07 -0.034,-0.111l0.094,-0c0,0.043 0.016,0.077 0.048,0.102c0.032,0.025 0.074,0.037 0.127,0.037c0.05,0 0.088,-0.01 0.114,-0.03c0.026,-0.02 0.039,-0.048 0.039,-0.083c0,-0.035 -0.012,-0.061 -0.036,-0.08c-0.025,-0.02 -0.069,-0.038 -0.133,-0.057Z" style="fill:#002510;fill-rule:nonzero;"/></g><g transform="matrix(83.3333,0,0,83.3333,-133.295,398.083)"><path d="M0.605,-0.226c-0.008,0.076 -0.036,0.134 -0.083,0.174c-0.046,0.041 -0.109,0.062 -0.186,0.062c-0.084,-0 -0.151,-0.03 -0.202,-0.091c-0.051,-0.06 -0.076,-0.14 -0.076,-0.241l0,-0.069c0,-0.066 0.012,-0.124 0.036,-0.174c0.023,-0.05 0.057,-0.089 0.1,-0.115c0.043,-0.027 0.093,-0.041 0.15,-0.041c0.076,0 0.136,0.021 0.182,0.064c0.045,0.042 0.072,0.1 0.079,0.175l-0.094,-0c-0.008,-0.057 -0.026,-0.098 -0.053,-0.123c-0.027,-0.026 -0.065,-0.039 -0.114,-0.039c-0.06,0 -0.107,0.023 -0.141,0.067c-0.034,0.044 -0.051,0.107 -0.051,0.189l0,0.069c0,0.077 0.016,0.138 0.049,0.184c0.032,0.045 0.077,0.068 0.135,0.068c0.052,0 0.092,-0.012 0.12,-0.035c0.028,-0.024 0.046,-0.065 0.055,-0.124l0.094,0Z" style="fill:#002510;fill-rule:nonzero;"/></g><g transform="matrix(83.3333,0,0,83.3333,-79.0546,398.083)"><path d="M0.343,-0.288l-0.167,0l0,0.288l-0.094,-0l0,-0.711l0.235,0c0.08,0 0.142,0.018 0.185,0.055c0.043,0.036 0.065,0.089 0.065,0.159c-0,0.044 -0.012,0.083 -0.036,0.116c-0.024,0.033 -0.057,0.057 -0.1,0.073l0.167,0.302l0,0.006l-0.1,-0l-0.155,-0.288Zm-0.167,-0.076l0.144,-0c0.047,-0 0.084,-0.012 0.111,-0.036c0.028,-0.024 0.042,-0.057 0.042,-0.097c-0,-0.044 -0.013,-0.078 -0.04,-0.101c-0.026,-0.024 -0.064,-0.035 -0.113,-0.036l-0.144,0l0,0.27Z" style="fill:#002510;fill-rule:nonzero;"/></g><g transform="matrix(83.3333,0,0,83.3333,-27.7444,398.083)"><rect x="0.089" y="-0.711" width="0.094" height="0.711" style="fill:#002510;fill-rule:nonzero;"/></g><g transform="matrix(83.3333,0,0,83.3333,-5.08004,398.083)"><path d="M0.176,-0.278l0,0.278l-0.093,-0l-0,-0.711l0.262,0c0.078,0 0.138,0.02 0.183,0.06c0.044,0.039 0.066,0.092 0.066,0.157c-0,0.069 -0.022,0.122 -0.065,0.16c-0.043,0.037 -0.105,0.056 -0.185,0.056l-0.168,-0Zm0,-0.077l0.169,0c0.05,0 0.088,-0.012 0.115,-0.035c0.027,-0.024 0.04,-0.058 0.04,-0.103c-0,-0.042 -0.013,-0.076 -0.04,-0.101c-0.027,-0.026 -0.063,-0.039 -0.11,-0.04l-0.174,0l0,0.279Z" style="fill:#002510;fill-rule:nonzero;"/></g><g transform="matrix(83.3333,0,0,83.3333,47.4916,398.083)"><path d="M0.574,-0.634l-0.229,0l0,0.634l-0.093,-0l-0,-0.634l-0.228,0l-0,-0.077l0.55,0l-0,0.077Z" style="fill:#002510;fill-rule:nonzero;"/></g><g transform="matrix(83.3333,0,0,83.3333,97.2149,398.083)"><rect x="0.089" y="-0.711" width="0.094" height="0.711" style="fill:#002510;fill-rule:nonzero;"/></g><g transform="matrix(83.3333,0,0,83.3333,119.879,398.083)"><path d="M0.629,-0l-0.094,-0l-0.358,-0.548l-0,0.548l-0.094,-0l-0,-0.711l0.094,0l0.359,0.55l-0,-0.55l0.093,0l-0,0.711Z" style="fill:#002510;fill-rule:nonzero;"/></g><g transform="matrix(83.3333,0,0,83.3333,179.287,398.083)"><path d="M0.607,-0.093c-0.024,0.034 -0.057,0.06 -0.1,0.077c-0.044,0.017 -0.094,0.026 -0.151,0.026c-0.058,-0 -0.109,-0.014 -0.154,-0.041c-0.045,-0.027 -0.08,-0.066 -0.105,-0.116c-0.024,-0.05 -0.037,-0.108 -0.037,-0.174l-0,-0.062c-0,-0.107 0.025,-0.19 0.075,-0.249c0.049,-0.059 0.12,-0.089 0.21,-0.089c0.074,0 0.134,0.019 0.179,0.057c0.046,0.038 0.073,0.092 0.083,0.162l-0.093,-0c-0.018,-0.095 -0.074,-0.142 -0.168,-0.142c-0.063,0 -0.111,0.022 -0.143,0.067c-0.033,0.044 -0.049,0.108 -0.049,0.191l-0,0.058c-0,0.08 0.018,0.144 0.054,0.191c0.037,0.047 0.086,0.07 0.148,0.07c0.036,0 0.066,-0.004 0.093,-0.012c0.026,-0.007 0.048,-0.021 0.065,-0.039l0,-0.16l-0.164,0l-0,-0.076l0.257,-0l0,0.261Z" style="fill:#002510;fill-rule:nonzero;"/></g></g></g></g></svg>