<?xml version="1.0" encoding="UTF-8" standalone="no"?><!DOCTYPE svg PUBLIC "-//W3C//DTD SVG 1.1//EN" "http://www.w3.org/Graphics/SVG/1.1/DTD/svg11.dtd"><svg width="100%" height="100%" viewBox="0 0 67 67" version="1.1" xmlns="http://www.w3.org/2000/svg" xmlns:xlink="http://www.w3.org/1999/xlink" xml:space="preserve" xmlns:serif="http://www.serif.com/" style="fill-rule:evenodd;clip-rule:evenodd;stroke-linejoin:round;stroke-miterlimit:1.5;"><g id="gmail-empty"><g><ellipse cx="33.464" cy="33.233" rx="33.089" ry="32.858" style="fill:none;stroke:#002510;stroke-width:0.75px;"/><path d="M21.141,50.65l-7.243,-0c-1.687,0.17 -2.717,-1.075 -2.934,-2.75l0,-27.492c0,0 0.463,-1.715 1.943,-2.524c1.781,-0.973 3.083,-1.24 4.385,-0.529c0.848,0.463 2.268,1.417 3.924,2.59c5.032,3.567 12.248,9.16 12.248,9.16c0,0 13.443,-10.238 16.893,-12.162c1.122,-0.625 2.89,0.065 3.803,0.622c1.651,1.007 1.804,3.007 1.804,3.007l0,27.052c0,0 -0.001,1.253 -0.747,2.199c-0.659,0.838 -2.184,0.827 -2.184,0.827l-7.309,-0l0.026,-17.417l-12.286,9.264l-12.435,-9.264l0.112,17.417Zm24.701,-30.698l-0.092,13.281l10.214,-7.391m-34.748,-5.89l-0.114,13.281l-10.138,-7.56" style="fill:none;stroke:#002510;stroke-width:0.83px;"/></g></g></svg>