<?xml version="1.0" encoding="UTF-8" standalone="no"?><!DOCTYPE svg PUBLIC "-//W3C//DTD SVG 1.1//EN" "http://www.w3.org/Graphics/SVG/1.1/DTD/svg11.dtd"><svg width="100%" height="100%" viewBox="0 0 67 67" version="1.1" xmlns="http://www.w3.org/2000/svg" xmlns:xlink="http://www.w3.org/1999/xlink" xml:space="preserve" xmlns:serif="http://www.serif.com/" style="fill-rule:evenodd;clip-rule:evenodd;stroke-linecap:round;stroke-linejoin:round;stroke-miterlimit:1.5;"><g id="linkedin-empty"><g><ellipse cx="21.106" cy="21.357" rx="3.862" ry="3.664" style="fill:none;stroke:#002510;stroke-width:0.75px;"/><path d="M18.465,27.632l6.12,-0.009l0.069,20.051l-6.425,-0.049l0.236,-19.993Z" style="fill:none;stroke:#002510;stroke-width:0.75px;stroke-linecap:butt;"/><path d="M28.484,27.29l6.81,0.072l0.203,2.587c-0,-0 1.612,-1.491 2.518,-1.935c0.901,-0.442 1.921,-0.63 2.919,-0.732c1.037,-0.106 2.327,-0.114 3.306,0.097c0.921,0.198 1.83,0.588 2.571,1.168c0.771,0.603 1.59,1.704 2.054,2.451c0.38,0.61 0.557,1.433 0.733,2.029c0.148,0.506 0.318,1.55 0.318,1.55l0.197,13.117l-7.321,-0.02l-0.15,-10.745c-0,-0 -0.054,-0.973 -0.185,-1.438c-0.151,-0.537 -0.352,-1.31 -0.724,-1.785c-0.372,-0.474 -0.911,-0.911 -1.506,-1.062c-0.653,-0.165 -1.786,-0.095 -2.41,0.071c-0.523,0.139 -0.966,0.527 -1.334,0.924c-0.386,0.417 -0.951,0.961 -0.987,1.581c-0.137,2.326 0.17,12.374 0.17,12.374l-7.117,-0.084l-0.065,-20.22Z" style="fill:none;stroke:#002510;stroke-width:0.75px;stroke-linecap:butt;"/><ellipse cx="33.464" cy="33.233" rx="33.089" ry="32.858" style="fill:none;stroke:#002510;stroke-width:0.75px;stroke-linecap:butt;"/></g></g></svg>