<?xml version="1.0" encoding="UTF-8" standalone="no"?><!DOCTYPE svg PUBLIC "-//W3C//DTD SVG 1.1//EN" "http://www.w3.org/Graphics/SVG/1.1/DTD/svg11.dtd"><svg width="100%" height="100%" viewBox="0 0 67 67" version="1.1" xmlns="http://www.w3.org/2000/svg" xmlns:xlink="http://www.w3.org/1999/xlink" xml:space="preserve" xmlns:serif="http://www.serif.com/" style="fill-rule:evenodd;clip-rule:evenodd;stroke-linejoin:round;stroke-miterlimit:1.5;"><g id="research-gate-empty"><g><ellipse cx="33.464" cy="33.233" rx="33.089" ry="32.858" style="fill:none;stroke:#002510;stroke-width:0.75px;"/><path d="M14.577,22.943c0.011,0.833 2.834,1.28 2.834,1.28l0.66,1.199l0.088,19.354c0,-0 -0.569,0.847 -0.977,1.135c-0.548,0.388 -2.763,0.453 -2.312,1.192c0.376,0.617 3.121,0.437 3.121,0.437l3.947,0.102c0,-0 4.355,0.125 3.929,-0.738c-0.192,-0.39 -1.062,-0.535 -1.807,-0.778c-0.885,-0.289 -1.646,-0.64 -1.646,-0.64l-0.265,-1.029c-0,0 -0.45,-8.042 0.112,-8.014c0.264,-0.157 2.756,0.147 2.756,0.147c0,0 5.975,8.474 8.052,9.9c0.761,0.523 2.519,1.154 2.519,1.154c-0,0 3.085,0.867 3.966,0.14c0.262,-0.217 1.056,-0.696 0.771,-0.846c-0.86,-0.451 -1.6,-0.705 -2.41,-1.035c-2.735,-1.112 -8.689,-9.815 -8.689,-9.815c-0,-0 3.101,-1.494 4.038,-2.492c0.84,-0.895 1.612,-2.015 1.9,-3.151c0.289,-1.136 0.191,-2.638 -0.171,-3.668c-0.354,-1.009 -1.211,-1.831 -1.999,-2.509c-0.788,-0.678 -2.73,-1.559 -2.73,-1.559l-2.789,-0.24l-10.755,-0.049c0,0 -2.148,0.201 -2.143,0.523Z" style="fill:none;stroke:#002510;stroke-width:0.83px;"/><path d="M22.455,24.549c-0.734,0.628 -0.781,9.535 -0.47,9.742c0.918,0.61 4.205,-0.012 5.572,-0.356c1.014,-0.255 2.007,-0.87 2.629,-1.709c0.643,-0.867 1.331,-2.324 1.228,-3.491c-0.103,-1.167 -0.651,-2.698 -1.845,-3.514c-0.638,-0.435 -2.147,-0.869 -2.147,-0.869c-0,-0 -4.674,-0.053 -4.967,0.197Z" style="fill:none;stroke:#002510;stroke-width:0.83px;"/><path d="M48.947,16.917c0.054,-0.423 -0.87,-1.343 -1.488,-1.797c-0.585,-0.429 -1.287,-0.726 -1.99,-0.882c-0.702,-0.156 -1.498,-0.2 -2.225,-0.054c-0.888,0.179 -2.065,0.299 -2.739,0.723c-0.482,0.303 -1.431,1.343 -1.649,2.057c-0.323,1.054 -0.285,4.267 -0.285,4.267c0,-0 -0.047,1.81 0.124,2.692c0.279,1.437 0.602,1.995 1.063,2.617c0.404,0.546 1.061,0.898 1.703,1.118c0.724,0.249 1.786,0.393 2.639,0.374c0.843,-0.019 1.866,-0.259 2.482,-0.488c0.47,-0.175 0.873,-0.521 1.216,-0.886c0.401,-0.427 0.919,-1.086 1.19,-1.676c0.266,-0.581 0.385,-1.23 0.434,-1.867c0.056,-0.719 0.372,-1.633 0.105,-2.185c-0.397,-0.825 -4.183,-0.397 -5.041,-0.222c-0.417,0.085 -0.448,1.011 -0.111,1.27c0.431,0.331 2.174,0.12 2.586,0.496c0.411,0.376 0.035,1.26 -0.119,1.759c-0.145,0.47 -0.409,0.944 -0.804,1.236c-0.414,0.305 -1.088,0.558 -1.682,0.595c-0.661,0.042 -1.746,-0.004 -2.286,-0.346c-0.539,-0.342 -0.877,-1.06 -0.951,-1.707c-0.15,-1.322 -0.352,-4.628 0.047,-6.221c0.111,-0.441 0.334,-0.902 0.702,-1.169c0.416,-0.301 1.179,-0.577 1.791,-0.636c0.612,-0.059 1.31,0.007 1.882,0.282c0.579,0.278 1.025,1.28 1.592,1.388c0.568,0.108 1.76,-0.316 1.814,-0.738Z" style="fill:none;stroke:#002510;stroke-width:0.83px;"/></g></g></svg>