<?xml version="1.0" encoding="UTF-8" standalone="no"?><!DOCTYPE svg PUBLIC "-//W3C//DTD SVG 1.1//EN" "http://www.w3.org/Graphics/SVG/1.1/DTD/svg11.dtd"><svg width="100%" height="100%" viewBox="0 0 67 67" version="1.1" xmlns="http://www.w3.org/2000/svg" xmlns:xlink="http://www.w3.org/1999/xlink" xml:space="preserve" xmlns:serif="http://www.serif.com/" style="fill-rule:evenodd;clip-rule:evenodd;stroke-linejoin:round;stroke-miterlimit:1.5;"><g id="resume-empty"><ellipse cx="33.464" cy="33.233" rx="33.089" ry="32.858" style="fill:none;stroke:#002510;stroke-width:0.75px;"/><path d="M44.66,58.939l-0.035,-7.499l7.154,-0.005" style="fill:#002510;fill-opacity:0.82;stroke:#002510;stroke-width:0.83px;"/><g><path d="M44.659,58.903l0.001,0.036l7.119,-7.504l-0,-40.655l-36.629,-0l-0,48.159l29.475,-0l0.034,-0.036Z" style="fill:none;stroke:#002510;stroke-width:0.83px;stroke-linecap:square;"/><g><g><path d="M23.441,32.483l23.797,-0.221" style="fill:none;stroke:#002510;stroke-width:0.83px;"/><circle cx="20.441" cy="32.483" r="0.75" style="fill:#002510;stroke:#002510;stroke-width:0.83px;"/></g><g><path d="M23.441,39.225l23.797,-0.222" style="fill:none;stroke:#002510;stroke-width:0.83px;"/><circle cx="20.441" cy="39.225" r="0.75" style="fill:#002510;stroke:#002510;stroke-width:0.83px;"/></g><g><path d="M23.441,45.966l23.797,-0.222" style="fill:none;stroke:#002510;stroke-width:0.83px;"/><circle cx="20.441" cy="45.966" r="0.75" style="fill:#002510;stroke:#002510;stroke-width:0.83px;"/></g></g><path d="M32.451,22.256c-0.147,1.253 -0.609,2.221 -1.388,2.901c-0.778,0.681 -1.813,1.022 -3.104,1.022c-1.4,-0 -2.522,-0.502 -3.365,-1.506c-0.844,-1.004 -1.266,-2.346 -1.266,-4.028l0,-1.139c0,-1.102 0.197,-2.07 0.59,-2.906c0.394,-0.835 0.951,-1.477 1.673,-1.924c0.721,-0.448 1.557,-0.672 2.506,-0.672c1.259,0 2.268,0.352 3.027,1.054c0.76,0.703 1.202,1.675 1.327,2.918l-1.571,-0c-0.135,-0.944 -0.43,-1.628 -0.883,-2.051c-0.453,-0.423 -1.086,-0.635 -1.9,-0.635c-0.998,0 -1.781,0.369 -2.348,1.107c-0.567,0.738 -0.85,1.787 -0.85,3.149l-0,1.148c-0,1.286 0.268,2.308 0.806,3.068c0.537,0.759 1.288,1.139 2.254,1.139c0.868,0 1.534,-0.197 1.998,-0.59c0.464,-0.393 0.771,-1.078 0.923,-2.055l1.571,0Z" style="fill:#002510;fill-rule:nonzero;"/><path d="M38.506,23.941l3.385,-9.774l1.709,0l-4.394,11.849l-1.384,-0l-4.386,-11.849l1.701,0l3.369,9.774Z" style="fill:#002510;fill-rule:nonzero;"/></g></g></svg>