<?xml version="1.0" encoding="UTF-8" standalone="no"?><!DOCTYPE svg PUBLIC "-//W3C//DTD SVG 1.1//EN" "http://www.w3.org/Graphics/SVG/1.1/DTD/svg11.dtd"><svg width="100%" height="100%" viewBox="0 0 945 945" version="1.1" xmlns="http://www.w3.org/2000/svg" xmlns:xlink="http://www.w3.org/1999/xlink" xml:space="preserve" xmlns:serif="http://www.serif.com/" style="fill-rule:evenodd;clip-rule:evenodd;stroke-linejoin:round;stroke-miterlimit:2;"><g><g id="smaller-version" serif:id="smaller version"><g id="Layer2"><path d="M944.882,236.22c-0,-130.373 -105.847,-236.22 -236.221,-236.22l-472.441,-0c-130.373,-0 -236.22,105.847 -236.22,236.22l-0,472.441c-0,130.374 105.847,236.221 236.22,236.221l472.441,-0c130.374,-0 236.221,-105.847 236.221,-236.221l-0,-472.441Z" style="fill:#f7eac0;"/></g><g id="intersecting-layer" serif:id="intersecting layer"><g><path d="M888.481,372.053l-3.067,1.363c-17.718,-16.355 -39.014,-29.417 -63.888,-39.184c-24.874,-9.768 -52.19,-14.652 -81.947,-14.652c-28.622,-0 -54.859,4.486 -78.71,13.459c-23.852,8.973 -44.353,21.978 -61.504,39.014c-17.15,17.037 -30.495,37.936 -40.036,62.696c-9.541,24.76 -14.311,52.928 -14.311,84.503c-0,34.755 4.543,67.182 13.629,97.28c9.087,30.099 22.603,56.165 40.548,78.199c17.946,22.035 40.377,39.356 67.296,51.963c26.918,12.607 58.322,18.911 94.213,18.911c12.948,-0 25.896,-1.363 38.844,-4.089c12.948,-2.726 25.385,-6.758 37.311,-12.096c11.926,-5.339 23.17,-11.813 33.733,-19.422c10.563,-7.61 20.16,-16.299 28.792,-26.067l3.749,2.385l-27.259,69.511c-17.037,6.587 -35.835,11.642 -56.392,15.163c-20.558,3.521 -41.286,5.281 -62.185,5.281c-42.024,0 -80.471,-6.076 -115.339,-18.229c-34.869,-12.153 -64.854,-29.361 -89.955,-51.622c-25.101,-22.262 -44.637,-49.009 -58.607,-80.244c-13.97,-31.234 -20.955,-65.932 -20.955,-104.095c-0,-21.58 2.783,-42.819 8.348,-63.718c5.565,-20.898 13.686,-40.774 24.363,-59.629c10.676,-18.854 23.851,-36.174 39.525,-51.962c15.674,-15.787 33.563,-29.474 53.666,-41.059c20.104,-11.585 42.252,-20.614 66.444,-27.088c24.192,-6.474 50.372,-9.711 78.54,-9.711c43.841,-0 84.503,6.701 121.984,20.103l23.17,63.036Z" style="fill:#0e4d10;fill-rule:nonzero;"/><path d="M633.257,308.961l4.757,34.46c-14.364,7.762 -27.247,17.306 -38.649,28.632c-7.007,6.962 -13.38,14.568 -19.118,22.821l-6.995,-52.765c7.94,-5.867 16.304,-11.332 25.091,-16.396c11.023,-6.352 22.66,-11.936 34.914,-16.752Z" style="fill:#f7eac0;fill-rule:nonzero;"/><path d="M638.014,343.421l28.988,209.985c1.59,12.721 3.294,23.625 5.111,32.711c1.817,9.087 3.634,16.867 5.452,23.341c1.817,6.474 3.577,11.812 5.281,16.014c1.704,4.203 3.351,7.667 4.941,10.393l-0,1.363l-85.866,-0l0,-1.363c1.136,-2.499 2.215,-6.588 3.237,-12.267c1.022,-5.679 1.533,-12.493 1.533,-20.444c0,-2.953 -0.113,-5.963 -0.34,-9.029c-0.228,-3.067 -0.568,-6.418 -1.023,-10.052l-25.081,-189.199c5.738,-8.253 12.111,-15.859 19.118,-22.821c11.402,-11.326 24.285,-20.87 38.649,-28.632Zm-64.762,-1.312l-11.197,-84.462l-201.035,378.218l-23.511,-2.726l-202.398,-378.9c-7.95,53.837 -14.879,103.584 -20.785,149.243c-2.498,19.536 -4.997,39.015 -7.496,58.437c-2.499,19.422 -4.713,37.537 -6.644,54.347c-1.931,16.81 -3.464,31.632 -4.6,44.466c-1.136,12.835 -1.704,22.319 -1.704,28.452c0,7.723 0.227,14.538 0.682,20.444c0.454,5.906 0.908,10.904 1.363,14.992c0.681,4.771 1.363,8.973 2.044,12.608l-68.147,-0l-0,-1.363c2.498,-3.635 5.338,-9.03 8.518,-16.185c3.18,-7.156 5.679,-16.185 7.496,-27.089c2.499,-15.901 5.282,-33.79 8.348,-53.666c3.067,-19.876 6.247,-40.718 9.541,-62.525c3.294,-21.807 6.587,-44.126 9.881,-66.955c3.294,-22.829 6.474,-45.318 9.541,-67.466c3.067,-22.148 6.02,-43.501 8.859,-64.058c2.84,-20.558 5.395,-39.356 7.667,-56.392c2.271,-17.037 4.145,-31.859 5.622,-44.467c1.476,-12.607 2.555,-22.091 3.237,-28.451l43.273,-0l214.324,400.707l212.62,-400.707l32.37,-0l22.136,160.35c-12.254,4.816 -23.891,10.4 -34.914,16.752c-8.787,5.064 -17.151,10.529 -25.091,16.396Z" style="fill:#0e4d10;fill-rule:nonzero;"/></g></g></g><g id="smaller-version---diff-colors" serif:id="smaller version - diff colors"><g id="Layer21" serif:id="Layer2"><path d="M944.882,236.22c-0,-130.373 -105.847,-236.22 -236.221,-236.22l-472.441,-0c-130.373,-0 -236.22,105.847 -236.22,236.22l-0,472.441c-0,130.374 105.847,236.221 236.22,236.221l472.441,-0c130.374,-0 236.221,-105.847 236.221,-236.221l-0,-472.441Z" style="fill:#a29587;"/></g><g id="intersecting-layer1" serif:id="intersecting layer"><g><path d="M888.481,372.053l-3.067,1.363c-17.718,-16.355 -39.014,-29.417 -63.888,-39.184c-24.874,-9.768 -52.19,-14.652 -81.947,-14.652c-28.622,-0 -54.859,4.486 -78.71,13.459c-23.852,8.973 -44.353,21.978 -61.504,39.014c-17.15,17.037 -30.495,37.936 -40.036,62.696c-9.541,24.76 -14.311,52.928 -14.311,84.503c-0,34.755 4.543,67.182 13.629,97.28c9.087,30.099 22.603,56.165 40.548,78.199c17.946,22.035 40.377,39.356 67.296,51.963c26.918,12.607 58.322,18.911 94.213,18.911c12.948,-0 25.896,-1.363 38.844,-4.089c12.948,-2.726 25.385,-6.758 37.311,-12.096c11.926,-5.339 23.17,-11.813 33.733,-19.422c10.563,-7.61 20.16,-16.299 28.792,-26.067l3.749,2.385l-27.259,69.511c-17.037,6.587 -35.835,11.642 -56.392,15.163c-20.558,3.521 -41.286,5.281 -62.185,5.281c-42.024,0 -80.471,-6.076 -115.339,-18.229c-34.869,-12.153 -64.854,-29.361 -89.955,-51.622c-25.101,-22.262 -44.637,-49.009 -58.607,-80.244c-13.97,-31.234 -20.955,-65.932 -20.955,-104.095c-0,-21.58 2.783,-42.819 8.348,-63.718c5.565,-20.898 13.686,-40.774 24.363,-59.629c10.676,-18.854 23.851,-36.174 39.525,-51.962c15.674,-15.787 33.563,-29.474 53.666,-41.059c20.104,-11.585 42.252,-20.614 66.444,-27.088c24.192,-6.474 50.372,-9.711 78.54,-9.711c43.841,-0 84.503,6.701 121.984,20.103l23.17,63.036Z" style="fill:#002510;fill-rule:nonzero;"/><path d="M633.257,308.961l4.757,34.46c-14.364,7.762 -27.247,17.306 -38.649,28.632c-7.007,6.962 -13.38,14.568 -19.118,22.821l-6.995,-52.765c7.94,-5.867 16.304,-11.332 25.091,-16.396c11.023,-6.352 22.66,-11.936 34.914,-16.752Z" style="fill:#a29587;fill-rule:nonzero;"/><path d="M638.014,343.421l28.988,209.985c1.59,12.721 3.294,23.625 5.111,32.711c1.817,9.087 3.634,16.867 5.452,23.341c1.817,6.474 3.577,11.812 5.281,16.014c1.704,4.203 3.351,7.667 4.941,10.393l-0,1.363l-85.866,-0l0,-1.363c1.136,-2.499 2.215,-6.588 3.237,-12.267c1.022,-5.679 1.533,-12.493 1.533,-20.444c0,-2.953 -0.113,-5.963 -0.34,-9.029c-0.228,-3.067 -0.568,-6.418 -1.023,-10.052l-25.081,-189.199c5.738,-8.253 12.111,-15.859 19.118,-22.821c11.402,-11.326 24.285,-20.87 38.649,-28.632Zm-64.762,-1.312l-11.197,-84.462l-201.035,378.218l-23.511,-2.726l-202.398,-378.9c-7.95,53.837 -14.879,103.584 -20.785,149.243c-2.498,19.536 -4.997,39.015 -7.496,58.437c-2.499,19.422 -4.713,37.537 -6.644,54.347c-1.931,16.81 -3.464,31.632 -4.6,44.466c-1.136,12.835 -1.704,22.319 -1.704,28.452c0,7.723 0.227,14.538 0.682,20.444c0.454,5.906 0.908,10.904 1.363,14.992c0.681,4.771 1.363,8.973 2.044,12.608l-68.147,-0l-0,-1.363c2.498,-3.635 5.338,-9.03 8.518,-16.185c3.18,-7.156 5.679,-16.185 7.496,-27.089c2.499,-15.901 5.282,-33.79 8.348,-53.666c3.067,-19.876 6.247,-40.718 9.541,-62.525c3.294,-21.807 6.587,-44.126 9.881,-66.955c3.294,-22.829 6.474,-45.318 9.541,-67.466c3.067,-22.148 6.02,-43.501 8.859,-64.058c2.84,-20.558 5.395,-39.356 7.667,-56.392c2.271,-17.037 4.145,-31.859 5.622,-44.467c1.476,-12.607 2.555,-22.091 3.237,-28.451l43.273,-0l214.324,400.707l212.62,-400.707l32.37,-0l22.136,160.35c-12.254,4.816 -23.891,10.4 -34.914,16.752c-8.787,5.064 -17.151,10.529 -25.091,16.396Z" style="fill:#002510;fill-rule:nonzero;"/></g></g></g></g></svg>